<?xml version="1.0" encoding="UTF-8" standalone="no"?>
<!-- Created with Inkscape (http://www.inkscape.org/) -->

<svg
   xmlns:dc="http://purl.org/dc/elements/1.1/"
   xmlns:cc="http://creativecommons.org/ns#"
   xmlns:rdf="http://www.w3.org/1999/02/22-rdf-syntax-ns#"
   xmlns:svg="http://www.w3.org/2000/svg"
   xmlns="http://www.w3.org/2000/svg"
   xmlns:xlink="http://www.w3.org/1999/xlink"
   xmlns:sodipodi="http://sodipodi.sourceforge.net/DTD/sodipodi-0.dtd"
   xmlns:inkscape="http://www.inkscape.org/namespaces/inkscape"
   width="24"
   height="24"
   id="svg2"
   version="1.1"
   inkscape:version="0.47 r22583"
   sodipodi:docname="dropbox-faenza-sharp-red.svg">
  <defs
     id="defs4">
    <linearGradient
       id="linearGradient9731">
      <stop
         style="stop-color:#e55300;stop-opacity:1;"
         offset="0"
         id="stop9733" />
      <stop
         style="stop-color:#cd0000;stop-opacity:1;"
         offset="1"
         id="stop9735" />
    </linearGradient>
    <linearGradient
       id="linearGradient5650">
      <stop
         style="stop-color:#f0f0f0;stop-opacity:1;"
         offset="0"
         id="stop5652" />
      <stop
         style="stop-color:#aaaaaa;stop-opacity:1;"
         offset="1"
         id="stop5654" />
    </linearGradient>
    <inkscape:perspective
       sodipodi:type="inkscape:persp3d"
       inkscape:vp_x="0 : 526.18109 : 1"
       inkscape:vp_y="0 : 1000 : 0"
       inkscape:vp_z="744.09448 : 526.18109 : 1"
       inkscape:persp3d-origin="372.04724 : 350.78739 : 1"
       id="perspective10" />
    <linearGradient
       inkscape:collect="always"
       xlink:href="#linearGradient5650"
       id="linearGradient5656"
       x1="12.000006"
       y1="1034.4402"
       x2="12.000006"
       y2="1049.0509"
       gradientUnits="userSpaceOnUse" />
  </defs>
  <sodipodi:namedview
     id="base"
     pagecolor="#ffffff"
     bordercolor="#666666"
     borderopacity="1.0"
     inkscape:pageopacity="0"
     inkscape:pageshadow="2"
     inkscape:zoom="16"
     inkscape:cx="14.28504"
     inkscape:cy="11.566564"
     inkscape:document-units="px"
     inkscape:current-layer="layer1"
     showgrid="false"
     inkscape:showpageshadow="false"
     inkscape:window-width="1280"
     inkscape:window-height="727"
     inkscape:window-x="0"
     inkscape:window-y="25"
     inkscape:window-maximized="1" />
  <metadata
     id="metadata7">
    <rdf:RDF>
      <cc:Work
         rdf:about="">
        <dc:format>image/svg+xml</dc:format>
        <dc:type
           rdf:resource="http://purl.org/dc/dcmitype/StillImage" />
        <dc:title></dc:title>
      </cc:Work>
    </rdf:RDF>
  </metadata>
  <g
     inkscape:label="Layer 1"
     inkscape:groupmode="layer"
     id="layer1"
     transform="translate(0,-1028.3622)">
    <path
       style="fill:#ffffff;stroke:none;stroke-width:1px;stroke-linecap:butt;stroke-linejoin:miter;stroke-opacity:1;fill-opacity:1;opacity:0.3"
       d="m 4.3125,7.0625 3.5,-2.8125 4.25,2.75 4.125,-2.6875 3.375,2.8125 -3.25,3.25 3.375,3.375 -7.75,6 -7.75,-6.125 3.375,-3.3125 -3.25,-3.25 z"
       id="path9219"
       transform="translate(0,1028.3622)" />
    <path
       style="opacity:0.3;fill:#000000;fill-opacity:1;stroke:none"
       d="m 16.2,1030.3622 -4.199994,2.8651 -4.200006,-2.8651 -6.3,5.1 3.4289382,3.2534 -3.4289382,3.3466 10.5,8.3 10.5,-8.3 -3.428926,-3.3466 3.428926,-3.2534 -6.3,-5.1 z m 0.643,5.1 -3.428779,3.2534 3.535779,3.3466 -4.95,3.886 -4.95,-3.886 3.535796,-3.3464 -3.428796,-3.2536 0.643,-0.538 4.20001,2.6935 4.19999,-2.6935 0.643,0.538 z"
       id="rect2824"
       sodipodi:nodetypes="cccccccccccccccccccccc" />
    <path
       style="fill:url(#linearGradient5656);fill-opacity:1;stroke:none"
       d="m 16.2,1031.4602 -4.199994,2.8647 -4.200006,-2.8647 -4.886,4.002 3.4291518,3.2534 -3.4291518,3.3466 9.086,7.3 9.086,-7.3 -3.42914,-3.3466 3.42914,-3.2534 -4.886,-4.002 z m 2.057,4.002 -3.428568,3.2534 3.535534,3.3466 -6.363966,4.8859 -6.3639559,-4.8859 3.5355339,-3.3466 -3.428578,-3.2534 2.057,-1.6347 4.200005,2.6932 4.199995,-2.6935 2.057,1.635 z"
       id="rect2818"
       sodipodi:nodetypes="cccccccccccccccccccccc" />
  </g>
</svg>
