<?xml version="1.0" encoding="UTF-8" standalone="no"?>
<!-- Created with Inkscape (http://www.inkscape.org/) -->

<svg
   xmlns:dc="http://purl.org/dc/elements/1.1/"
   xmlns:cc="http://creativecommons.org/ns#"
   xmlns:rdf="http://www.w3.org/1999/02/22-rdf-syntax-ns#"
   xmlns:svg="http://www.w3.org/2000/svg"
   xmlns="http://www.w3.org/2000/svg"
   xmlns:xlink="http://www.w3.org/1999/xlink"
   xmlns:sodipodi="http://sodipodi.sourceforge.net/DTD/sodipodi-0.dtd"
   xmlns:inkscape="http://www.inkscape.org/namespaces/inkscape"
   width="24"
   height="24"
   id="svg2"
   version="1.1"
   inkscape:version="0.47 r22583"
   sodipodi:docname="dropboxstatus-idle.svg">
  <defs
     id="defs4">
    <linearGradient
       id="linearGradient5726">
      <stop
         style="stop-color:#ffffff;stop-opacity:0.80392158;"
         offset="0"
         id="stop5728" />
      <stop
         style="stop-color:#ffffff;stop-opacity:0;"
         offset="1"
         id="stop5730" />
    </linearGradient>
    <linearGradient
       id="linearGradient5718">
      <stop
         style="stop-color:#000000;stop-opacity:1;"
         offset="0"
         id="stop5720" />
      <stop
         style="stop-color:#000000;stop-opacity:0;"
         offset="1"
         id="stop5722" />
    </linearGradient>
    <linearGradient
       id="linearGradient5650">
      <stop
         style="stop-color:#030303;stop-opacity:0.87450981;"
         offset="0"
         id="stop5652" />
      <stop
         style="stop-color:#1a1a1a;stop-opacity:0.5529412;"
         offset="1"
         id="stop5654" />
    </linearGradient>
    <inkscape:perspective
       sodipodi:type="inkscape:persp3d"
       inkscape:vp_x="0 : 526.18109 : 1"
       inkscape:vp_y="0 : 1000 : 0"
       inkscape:vp_z="744.09448 : 526.18109 : 1"
       inkscape:persp3d-origin="372.04724 : 350.78739 : 1"
       id="perspective10" />
    <linearGradient
       inkscape:collect="always"
       xlink:href="#linearGradient5650"
       id="linearGradient5656"
       x1="12.000006"
       y1="1034.4402"
       x2="12.000006"
       y2="1049.0509"
       gradientUnits="userSpaceOnUse" />
    <linearGradient
       inkscape:collect="always"
       xlink:href="#linearGradient5726"
       id="linearGradient5732"
       x1="12"
       y1="1050.3622"
       x2="12"
       y2="1030.3622"
       gradientUnits="userSpaceOnUse" />
  </defs>
  <sodipodi:namedview
     id="base"
     pagecolor="#ffffff"
     bordercolor="#666666"
     borderopacity="1.0"
     inkscape:pageopacity="0"
     inkscape:pageshadow="2"
     inkscape:zoom="11.313709"
     inkscape:cx="17.348"
     inkscape:cy="6.206735"
     inkscape:document-units="px"
     inkscape:current-layer="layer1"
     showgrid="false"
     inkscape:showpageshadow="false"
     inkscape:window-width="1280"
     inkscape:window-height="726"
     inkscape:window-x="0"
     inkscape:window-y="25"
     inkscape:window-maximized="1" />
  <metadata
     id="metadata7">
    <rdf:RDF>
      <cc:Work
         rdf:about="">
        <dc:format>image/svg+xml</dc:format>
        <dc:type
           rdf:resource="http://purl.org/dc/dcmitype/StillImage" />
        <dc:title></dc:title>
      </cc:Work>
    </rdf:RDF>
  </metadata>
  <g
     inkscape:label="Layer 1"
     inkscape:groupmode="layer"
     id="layer1"
     transform="translate(0,-1028.3622)">
    <path
       style="opacity:1;fill:url(#linearGradient5732);fill-opacity:1;stroke:none"
       d="m 16.2,1030.3622 -4.199994,2.8651 -4.200006,-2.8651 -6.3,5.1 3.4289382,3.2534 -3.4289382,3.3466 10.5,8.3 10.5,-8.3 -3.428926,-3.3466 3.428926,-3.2534 -6.3,-5.1 z m 0.528783,4.34 0.419844,0.3259 c 0.274216,0.2128 0.323431,0.5379 0.08839,0.7204 l -3.822796,2.9671 3.800699,2.9499 c 0.235214,0.1826 0.257139,0.4865 0.0221,0.6689 l -4.817165,3.739 c -0.235113,0.1824 -0.626573,0.1654 -0.861787,-0.017 l -4.7950676,-3.7218 c -0.2352148,-0.1825 -0.235113,-0.4692 0,-0.6517 l 3.8227956,-2.9671 -3.8227956,-2.9671 c -0.2350423,-0.1825 -0.2079247,-0.4904 0.066291,-0.7032 l 0.4198446,-0.3259 c 0.274216,-0.2128 0.6930354,-0.251 0.9280777,-0.069 l 3.8227963,2.9671 3.822796,-2.9671 c 0.235042,-0.1824 0.631765,-0.1614 0.905981,0.051 l -4e-6,6e-4 z"
       id="rect2824"
       sodipodi:nodetypes="cccccccccccccccccccccccccccccc" />
    <path
       style="fill:url(#linearGradient5656);fill-opacity:1;stroke:none"
       d="m 16.2,1031.4602 -4.199994,2.8647 -4.200006,-2.8647 -4.886,4.002 3.4291518,3.2534 -3.4291518,3.3466 9.086,7.3 9.086,-7.3 -3.42914,-3.3466 3.42914,-3.2534 -4.886,-4.002 z"
       id="rect2818"
       sodipodi:nodetypes="ccccccccccc" />
  </g>
</svg>
